:FULLY-SPECIFIED
:FORCE-ALL-JOINTS-BE-3DOF
:DEGREES
97
root 9.40665 16.2928 -23.653 3.3379 -2.32564 3.81586
lfemur -5.10329 0.469408 -29.318
ltibia 21.5154 0 0
lfoot -18.4381 7.38452 0
ltoes -0.897712 0 0
rfemur -32.9628 3.40832 15.9753
rtibia 46.344 0 0
rfoot -20.7959 -10.6863 0
rtoes -18.6273 0 0
lowerback -6.97427 -2.06944 -4.61442
upperback -0.285972 -2.47509 2.17198
thorax 3.91133 -1.33448 4.59984
lowerneck -21.0382 -4.92334 -12.6237
upperneck 19.7564 -5.5519 11.2405
head 10.4944 -2.21187 5.30847
lclavicle -1.28092e-14 2.8625e-14 0
lhumerus -20.563 -21.3389 87.3059
lradius 34.9489 0 0
lwrist 8.70795 0 0
lhand -15.5568 -25.3211 0
lfingers 7.12502 0 0
lthumb 10.6277 4.39014 0
rclavicle -1.28092e-14 2.8625e-14 0
rhumerus -43.5016 11.8454 -87.1022
rradius 38.2832 0 0
rwrist -21.7116 0 0
rhand -30.6228 -23.9346 0
rfingers 7.12502 0 0
rthumb -3.91891 -53.8783 0
98
root 9.4073 16.2931 -23.5272 3.2886 -1.91244 3.869
lfemur -4.10442 0.347318 -29.3639
ltibia 20.5914 0 0
lfoot -18.3404 7.16473 0
ltoes -1.02819 0 0
rfemur -33.3978 3.71253 15.6741
rtibia 45.0792 0 0
rfoot -20.796 -10.3028 0
rtoes -18.4611 0 0
lowerback -7.09183 -2.13369 -4.58526
upperback -0.228112 -2.55648 2.11375
thorax 4.0417 -1.37789 4.50947
lowerneck -20.8739 -4.96196 -12.6558
upperneck 19.7831 -5.61206 11.2122
head 10.4818 -2.25007 5.29443
lclavicle -1.41424e-14 2.642e-14 0
lhumerus -20.4142 -21.8956 87.356
lradius 35.5238 0 0
lwrist 9.11883 0 0
lhand -15.7406 -25.4524 0
lfingers 7.12502 0 0
lthumb 10.4505 4.26955 0
rclavicle -1.41424e-14 2.642e-14 0
rhumerus -43.549 11.6386 -87.0029
rradius 38.1252 0 0
rwrist -21.632 0 0
rhand -30.5486 -24.0164 0
rfingers 7.12502 0 0
rthumb -3.8473 -53.9613 0
99
root 9.40796 16.2933 -23.4013 3.23654 -1.5058 3.88603
lfemur -3.08957 0.279004 -29.3576
ltibia 19.6492 0 0
lfoot -18.2307 6.90321 0
ltoes -1.24917 0 0
rfemur -33.791 4.08585 15.3831
rtibia 43.8005 0 0
rfoot -20.793 -9.87871 0
rtoes -18.0354 0 0
lowerback -7.17986 -2.18815 -4.48847
upperback -0.1967 -2.6306 2.04441
thorax 4.12326 -1.41461 4.37042
lowerneck -20.6726 -5.00536 -12.7064
upperneck 19.8375 -5.68687 11.2098
head 10.4758 -2.29465 5.29212
lclavicle -1.58564e-14 2.17632e-14 0
lhumerus -20.3507 -22.4373 87.4008
lradius 36.1081 0 0
lwrist 9.55603 0 0
lhand -15.785 -25.5728 0
lfingers 7.12502 0 0
lthumb 10.4077 4.15179 0
rclavicle -1.58564e-14 2.17632e-14 0
rhumerus -43.6524 11.3981 -86.9225
rradius 37.9684 0 0
rwrist -21.5138 0 0
rhand -30.3834 -24.0592 0
rfingers 7.12502 0 0
rthumb -3.68777 -54.0067 0
100
root 9.40861 16.2936 -23.2754 3.18941 -1.10729 3.88233
lfemur -2.03423 0.250001 -29.3177
ltibia 18.6266 0 0
lfoot -18.0829 6.61131 0
ltoes -1.52761 0 0
rfemur -34.1594 4.5066 15.0877
rtibia 42.5187 0 0
rfoot -20.7909 -9.43828 0
rtoes -17.4899 0 0
lowerback -7.24528 -2.23793 -4.36231
upperback -0.189375 -2.7015 1.97536
thorax 4.16542 -1.44775 4.21589
lowerneck -20.4573 -5.0484 -12.7685
upperneck 19.9187 -5.76509 11.2213
head 10.4782 -2.34069 5.29744
lclavicle -1.78132e-14 1.58034e-14 0
lhumerus -20.3643 -22.9521 87.4617
lradius 36.6934 0 0
lwrist 10.0006 0 0
lhand -15.7321 -25.6757 0
lfingers 7.12502 0 0
lthumb 10.4587 4.04598 0
rclavicle -1.78132e-14 1.58034e-14 0
rhumerus -43.8028 11.1517 -86.8532
rradius 37.8155 0 0
rwrist -21.3686 0 0
rhand -30.172 -24.0785 0
rfingers 7.12502 0 0
rthumb -3.48362 -54.0293 0
101
root 9.40926 16.2939 -23.1496 3.1549 -0.718506 3.87332
lfemur -0.91387 0.245846 -29.2624
ltibia 17.461 0 0
lfoot -17.8714 6.3004 0
ltoes -1.83043 0 0
rfemur -34.5203 4.95309 14.7735
rtibia 41.245 0 0
rfoot -20.7937 -9.0057 0
rtoes -16.9644 0 0
lowerback -7.29503 -2.28813 -4.24502
upperback -0.203774 -2.77323 1.91797
thorax 4.1776 -1.48039 4.07907
lowerneck -20.2507 -5.08596 -12.8347
upperneck 20.0258 -5.83551 11.2345
head 10.4907 -2.38327 5.30628
lclavicle -1.98745e-14 9.68892e-15 0
lhumerus -20.4469 -23.4278 87.5601
lradius 37.2716 0 0
lwrist 10.4337 0 0
lhand -15.6241 -25.7544 0
lfingers 7.12502 0 0
lthumb 10.5628 3.96124 0
rclavicle -1.98745e-14 9.68892e-15 0
rhumerus -43.9912 10.9272 -86.7871
rradius 37.6697 0 0
rwrist -21.2082 0 0
rhand -29.9592 -24.0898 0
rfingers 7.12502 0 0
rthumb -3.27814 -54.0439 0
102
root 9.40992 16.2941 -23.0237 3.14071 -0.341044 3.87441
lfemur 0.296008 0.252074 -29.2104
ltibia 16.0903 0 0
lfoot -17.5703 5.98187 0
ltoes -2.12459 0 0
rfemur -34.8907 5.40364 14.4261
rtibia 39.9901 0 0
rfoot -20.8053 -8.60518 0
rtoes -16.5987 0 0
lowerback -7.33602 -2.34385 -4.17484
upperback -0.237534 -2.84986 1.88364
thorax 4.16922 -1.51563 3.99317
lowerneck -20.0755 -5.11287 -12.8981
upperneck 20.158 -5.88688 11.2371
head 10.5152 -2.41748 5.31453
lclavicle -2.19021e-14 4.56837e-15 0
lhumerus -20.5903 -23.8524 87.7173
lradius 37.8346 0 0
lwrist 10.8364 0 0
lhand -15.5032 -25.8022 0
lfingers 7.12502 0 0
lthumb 10.6794 3.9067 0
rclavicle -2.19021e-14 4.56837e-15 0
rhumerus -44.2086 10.7525 -86.7165
rradius 37.5337 0 0
rwrist -21.0443 0 0
rhand -29.7899 -24.1085 0
rfingers 7.12502 0 0
rthumb -3.11463 -54.0653 0
103
root 9.41057 16.2944 -22.8979 3.15454 0.0235091 3.90101
lfemur 1.61992 0.25422 -29.1801
ltibia 14.4519 0 0
lfoot -17.1536 5.66707 0
ltoes -2.37701 0 0
rfemur -35.2877 5.83656 14.0309
rtibia 38.7651 0 0
rfoot -20.8297 -8.26092 0
rtoes -16.5326 0 0
lowerback -7.37519 -2.41019 -4.19004
upperback -0.288292 -2.93543 1.88376
thorax 4.1497 -1.55656 3.99138
lowerneck -19.9545 -5.12402 -12.9514
upperneck 20.3143 -5.90799 11.217
head 10.5535 -2.4384 5.31809
lclavicle -2.37579e-14 1.59028e-15 0
lhumerus -20.7865 -24.2139 87.9549
lradius 38.3741 0 0
lwrist 11.1897 0 0
lhand -15.4116 -25.8125 0
lfingers 7.12502 0 0
lthumb 10.7677 3.89148 0
rclavicle -2.37579e-14 1.59028e-15 0
rhumerus -44.446 10.6554 -86.6336
rradius 37.4106 0 0
rwrist -20.8886 0 0
rhand -29.7089 -24.1501 0
rfingers 7.12502 0 0
rthumb -3.03638 -54.1082 0
